<mxfile host="app.diagrams.net" agent="Mozilla/5.0 (Windows NT 10.0; Win64; x64) AppleWebKit/537.36 (KHTML, like Gecko) Chrome/134.0.0.0 Safari/537.36" version="26.1.1">
  <diagram name="第 1 页" id="ichyi2vwhR61JE7YM1fG">
    <mxGraphModel dx="1647" dy="848" grid="0" gridSize="10" guides="1" tooltips="1" connect="1" arrows="1" fold="1" page="1" pageScale="1" pageWidth="827" pageHeight="1169" math="0" shadow="0">
      <root>
        <mxCell id="0" />
        <mxCell id="1" parent="0" />
        <mxCell id="E7I5gynyhYnkWF6V-4Y_-1" value="公告名称" style="ellipse;whiteSpace=wrap;html=1;" vertex="1" parent="1">
          <mxGeometry x="247" y="254" width="83" height="56" as="geometry" />
        </mxCell>
        <mxCell id="E7I5gynyhYnkWF6V-4Y_-2" value="公告信息表" style="rounded=1;whiteSpace=wrap;html=1;" vertex="1" parent="1">
          <mxGeometry x="330" y="437" width="120" height="60" as="geometry" />
        </mxCell>
        <mxCell id="E7I5gynyhYnkWF6V-4Y_-3" value="公告内容" style="ellipse;whiteSpace=wrap;html=1;" vertex="1" parent="1">
          <mxGeometry x="414" y="254" width="83" height="56" as="geometry" />
        </mxCell>
        <mxCell id="E7I5gynyhYnkWF6V-4Y_-4" value="公告时间" style="ellipse;whiteSpace=wrap;html=1;" vertex="1" parent="1">
          <mxGeometry x="547" y="306" width="83" height="56" as="geometry" />
        </mxCell>
        <mxCell id="E7I5gynyhYnkWF6V-4Y_-7" value="公告id" style="ellipse;whiteSpace=wrap;html=1;" vertex="1" parent="1">
          <mxGeometry x="135" y="325" width="83" height="56" as="geometry" />
        </mxCell>
        <mxCell id="E7I5gynyhYnkWF6V-4Y_-8" value="" style="endArrow=none;html=1;rounded=0;entryX=1;entryY=1;entryDx=0;entryDy=0;" edge="1" parent="1" target="E7I5gynyhYnkWF6V-4Y_-7">
          <mxGeometry width="50" height="50" relative="1" as="geometry">
            <mxPoint x="382" y="438" as="sourcePoint" />
            <mxPoint x="393" y="390" as="targetPoint" />
          </mxGeometry>
        </mxCell>
        <mxCell id="E7I5gynyhYnkWF6V-4Y_-9" value="" style="endArrow=none;html=1;rounded=0;entryX=0.744;entryY=0.943;entryDx=0;entryDy=0;entryPerimeter=0;" edge="1" parent="1" target="E7I5gynyhYnkWF6V-4Y_-1">
          <mxGeometry width="50" height="50" relative="1" as="geometry">
            <mxPoint x="384" y="438" as="sourcePoint" />
            <mxPoint x="180" y="342" as="targetPoint" />
          </mxGeometry>
        </mxCell>
        <mxCell id="E7I5gynyhYnkWF6V-4Y_-10" value="" style="endArrow=none;html=1;rounded=0;entryX=0.5;entryY=1;entryDx=0;entryDy=0;exitX=0.444;exitY=0.037;exitDx=0;exitDy=0;exitPerimeter=0;" edge="1" parent="1" source="E7I5gynyhYnkWF6V-4Y_-2" target="E7I5gynyhYnkWF6V-4Y_-3">
          <mxGeometry width="50" height="50" relative="1" as="geometry">
            <mxPoint x="394" y="448" as="sourcePoint" />
            <mxPoint x="259" y="267" as="targetPoint" />
          </mxGeometry>
        </mxCell>
        <mxCell id="E7I5gynyhYnkWF6V-4Y_-11" value="" style="endArrow=none;html=1;rounded=0;entryX=0.426;entryY=0.963;entryDx=0;entryDy=0;exitX=0.444;exitY=0.056;exitDx=0;exitDy=0;exitPerimeter=0;entryPerimeter=0;" edge="1" parent="1" source="E7I5gynyhYnkWF6V-4Y_-2" target="E7I5gynyhYnkWF6V-4Y_-4">
          <mxGeometry width="50" height="50" relative="1" as="geometry">
            <mxPoint x="394" y="451" as="sourcePoint" />
            <mxPoint x="361" y="220" as="targetPoint" />
          </mxGeometry>
        </mxCell>
      </root>
    </mxGraphModel>
  </diagram>
</mxfile>
